# xmcd
#
# Track frame offsets:
#	150
#	17407
#	35842
#	56575
#	76792
#	95297
#	114572
#	135747
#	155107
#
# Disc length: 2378 seconds
# Revision: 1
# Processed by: cddbd v1.5.2PL0 Copyright (c) Steve Scherf et al.
# Submitted via: dBpowerAMP V12.0
#
DISCID=6c094809
DTITLE=Goldfrapp - Felt Mountain
DYEAR=2000
DGENRE=Electronic
TTITLE0=Lovely Head
TTITLE1=Paper Bag
TTITLE2=Human
TTITLE3=Pilots
TTITLE4=Deer Stop
TTITLE5=Felt Mountain
TTITLE6=Oompa Radar
TTITLE7=Utopia
TTITLE8=Horse Tears
EXTD=
EXTT0=
EXTT1=
EXTT2=
EXTT3=
EXTT4=
EXTT5=
EXTT6=
EXTT7=
EXTT8=
PLAYORDER=
